<?xml version="1.0" encoding="UTF-8"?> <svg xmlns="http://www.w3.org/2000/svg" width="237" height="61" viewBox="0 0 237 61" fill="none"><path d="M8.41013 44.938H8.3042C3.00372 44.5957 0.294396 39.1377 0.436992 34.1781C0.457363 31.7933 1.23824 29.4765 2.66692 27.5657C4.29523 25.5083 6.79269 24.3322 9.41645 24.3892L33.3128 24.1203L41.6825 12.0554C41.7246 11.9956 41.7694 11.9372 41.8196 11.8843C41.1447 10.2288 41.9391 8.34109 43.5946 7.66613C45.2501 6.99118 47.1378 7.78564 47.8127 9.44111C48.4877 11.0966 47.6932 12.9843 46.0378 13.6592C45.6493 13.8181 45.2351 13.8982 44.8155 13.8982C44.6878 13.8982 44.5615 13.8915 44.4339 13.8765C44.4203 13.8982 44.4054 13.92 44.3918 13.9431L35.5373 26.7074C35.2331 27.1461 34.736 27.4109 34.2023 27.4163L9.44633 27.6852C6.77367 27.7042 3.87287 29.4453 3.73435 34.2704C3.5999 38.8199 6.06749 41.4532 8.46988 41.6419H23.0921C24.0033 41.6569 24.7299 42.4065 24.7149 43.3178C24.7014 44.2087 23.9829 44.9257 23.0921 44.9407H23.0866H8.41013V44.938ZM43.8866 10.6593C43.888 11.1713 44.3035 11.5855 44.8155 11.5841C45.3275 11.5828 45.7417 11.1672 45.7403 10.6552C45.739 10.1446 45.3248 9.73038 44.8128 9.73038C44.3008 9.73174 43.8866 10.1473 43.8866 10.6593Z" fill="url(#paint0_linear_1_224)"></path><path d="M44.9234 50.5493C44.9234 50.1609 44.9926 49.7766 45.1298 49.4126C45.0958 49.3719 45.0632 49.3284 45.0334 49.2836L36.6121 36.6944C36.2332 36.1268 36.2413 35.3853 36.6351 34.8271L50.9056 14.6016C52.4578 12.4219 52.743 9.05259 48.912 6.12055C45.2995 3.34876 41.7211 3.8037 40.1607 5.63979L31.6008 17.4956C31.0671 18.233 30.035 18.3987 29.2976 17.865C28.5602 17.3313 28.3945 16.2992 28.9282 15.5617L37.5233 3.65703L37.5885 3.57283C40.9714 -0.523059 46.9808 0.477829 50.9164 3.49814C52.8395 4.91052 54.26 6.90007 54.9702 9.17752C55.6859 11.7008 55.1767 14.4142 53.5959 16.5069L39.9814 35.8035L47.706 47.3429C49.4756 47.0931 51.1134 48.3248 51.3633 50.0944C51.6131 51.8639 50.3814 53.5017 48.6118 53.7516C46.8423 54.0015 45.2045 52.7697 44.9546 51.0002C44.9329 50.8508 44.9234 50.7 44.9234 50.5493ZM47.2307 50.5493C47.2307 51.0613 47.6449 51.4755 48.1569 51.4769C48.6689 51.4769 49.0831 51.0626 49.0844 50.5507C49.0844 50.0387 48.6702 49.6245 48.1582 49.6231C47.6476 49.6245 47.2348 50.0387 47.2334 50.5493H47.2307Z" fill="url(#paint1_linear_1_224)"></path><path d="M40.5123 56.009L27.6719 36.5563L12.0651 36.5712C12 36.5698 11.9348 36.563 11.8696 36.5535C10.8904 38.0487 8.88458 38.467 7.38937 37.4879C5.89415 36.5087 5.47587 34.5029 6.45502 33.0077C7.43418 31.5124 9.44003 31.0942 10.9352 32.0733C11.3956 32.3748 11.7705 32.7877 12.0271 33.2752H12.0651L28.5601 33.2602C29.1142 33.2602 29.6302 33.5373 29.9358 33.999L43.2746 54.2042L43.2909 54.23C44.7427 56.5183 47.8512 58.3653 51.8276 56.0375C55.2431 54.0385 55.6994 51.0413 54.6809 49.0721L45.7503 35.3829C45.2424 34.6278 45.4434 33.6038 46.1985 33.0946C46.9536 32.5853 47.9775 32.7876 48.4868 33.5427C48.495 33.5549 48.5045 33.5685 48.5126 33.5821L57.4839 47.3338C57.5084 47.3732 57.5328 47.4125 57.5545 47.4533C58.6763 49.508 58.7809 51.9661 57.8384 54.1091C56.9339 56.1217 55.4129 57.7935 53.4953 58.8827C51.8738 59.8387 50.0296 60.3521 48.1473 60.3697C45.3456 60.3711 42.5032 59.1366 40.5123 56.009ZM8.23272 34.7813C8.23408 35.2933 8.64964 35.7075 9.16163 35.7061C9.67361 35.7047 10.0878 35.2892 10.0865 34.7772C10.0851 34.2666 9.67226 33.8537 9.16163 33.8524C8.64964 33.8524 8.23408 34.2666 8.23272 34.7786C8.23272 34.7799 8.23272 34.7799 8.23272 34.7813Z" fill="url(#paint2_linear_1_224)"></path><path d="M77.5679 28.0022C79.0441 28.0457 80.4741 27.4794 81.5198 26.4377L86.4604 29.2788C84.441 32.0777 81.3962 33.52 77.485 33.52C70.4449 33.52 66.0801 28.7858 66.0801 22.6515C66.0801 16.5171 70.5236 11.783 77.0328 11.783C83.0435 11.783 87.4898 16.4357 87.4898 22.6515C87.4939 23.4812 87.411 24.3097 87.2426 25.1218H72.6259C73.4041 27.2607 75.304 28.0022 77.5679 28.0022ZM81.3568 20.5085C80.6968 18.1196 78.8444 17.2559 76.992 17.2559C74.6453 17.2559 73.089 18.4089 72.505 20.5085H81.3568Z" fill="#323232"></path><path d="M89.7578 22.6487C89.7578 16.513 94.4105 11.7801 100.663 11.7801C104.489 11.7285 108.045 13.7439 109.968 17.0508L104.574 20.1797C103.876 18.7388 102.392 17.8724 100.582 17.8724C97.9048 17.8724 95.9288 19.809 95.9288 22.6487C95.9288 25.4897 97.9048 27.4249 100.582 27.4249C102.393 27.4249 103.917 26.5599 104.574 25.1176L109.968 28.2058C108.07 31.5426 104.502 33.5796 100.663 33.5172C94.4078 33.5185 89.7578 28.7884 89.7578 22.6487Z" fill="#323232"></path><path d="M111 22.6485C110.977 16.6228 115.843 11.7188 121.869 11.6958C127.894 11.6727 132.798 16.5386 132.821 22.5643C132.844 28.59 127.978 33.4939 121.953 33.517C121.937 33.517 121.922 33.517 121.905 33.517C115.946 33.5808 111.064 28.8018 111 22.844C111 22.7788 111 22.7137 111 22.6485ZM126.646 22.6485C126.646 19.7259 124.587 17.7894 121.911 17.7894C119.234 17.7894 117.178 19.7246 117.178 22.6485C117.178 25.571 119.237 27.5076 121.911 27.5076C124.585 27.5076 126.646 25.5724 126.646 22.6485Z" fill="#323232"></path><path d="M151.895 26.7689C151.895 31.5045 147.777 33.5225 143.331 33.5225C139.213 33.5225 136.084 31.958 134.477 28.6227L139.83 25.5766C140.369 27.141 141.518 27.9993 143.33 27.9993C144.81 27.9993 145.554 27.5457 145.554 26.7228C145.554 24.4562 135.426 25.6458 135.426 18.5296C135.426 14.0399 139.213 11.776 143.495 11.776C146.831 11.776 149.795 13.2563 151.523 16.1815L146.254 19.0226C145.678 17.9456 144.853 17.2109 143.495 17.2109C142.418 17.2109 141.765 17.6224 141.765 18.3639C141.758 20.7106 151.895 19.1475 151.895 26.7689Z" fill="#323232"></path><path d="M186.06 20.3057V32.9478H179.883V20.8367C179.883 18.7779 178.896 17.4619 176.921 17.4619C174.861 17.4619 173.709 18.9028 173.709 21.331V32.9424H167.534V20.8367C167.534 18.7779 166.546 17.4619 164.572 17.4619C162.514 17.4619 161.361 18.9028 161.361 21.331V32.9424H155.186V12.3543H161.361V14.2474C162.303 12.8472 164.119 11.7771 166.88 11.7771C169.309 11.7771 171.12 12.7658 172.274 14.4959C173.427 12.8486 175.32 11.7771 178.244 11.7771C182.971 11.7785 186.06 15.1546 186.06 20.3057Z" fill="#323232"></path><path d="M189.273 22.6485C189.249 16.6228 194.115 11.7188 200.141 11.6958C206.167 11.6727 211.071 16.5386 211.094 22.5643C211.117 28.59 206.251 33.4939 200.225 33.517C200.212 33.517 200.197 33.517 200.183 33.517C194.224 33.5835 189.339 28.8059 189.273 22.8454C189.271 22.7802 189.271 22.715 189.273 22.6485ZM204.919 22.6485C204.919 19.7259 202.86 17.7894 200.184 17.7894C197.508 17.7894 195.449 19.7246 195.449 22.6485C195.449 25.571 197.508 27.5076 200.184 27.5076C202.861 27.5076 204.92 25.5724 204.919 22.6485Z" fill="#323232"></path><path d="M236.745 22.6485C236.745 28.7842 232.303 33.5171 226.905 33.5171C224.146 33.5171 222.127 32.5746 220.769 31.0047V32.9412H214.594V4.12061H220.769V14.2911C222.127 12.7266 224.145 11.7787 226.905 11.7787C232.299 11.7787 236.745 16.5142 236.745 22.6485ZM230.57 22.6485C230.57 19.5603 228.51 17.6251 225.669 17.6251C222.828 17.6251 220.77 19.559 220.77 22.6485C220.77 25.7368 222.829 27.672 225.669 27.672C228.51 27.672 230.57 25.7368 230.57 22.6485Z" fill="#323232"></path><path d="M76.2516 42.7953C75.2711 42.7777 74.3693 43.3277 73.9375 44.2091C73.6007 43.3182 72.7275 42.7464 71.7755 42.7953C70.8343 42.7709 69.9638 43.2937 69.5442 44.1384V42.9501H68.8516V49.8776H69.5442V46.0112C69.5442 44.2376 70.5559 43.4608 71.6926 43.4608C72.76 43.4608 73.4662 44.167 73.4662 45.4843V49.8776H74.1588V46.0112C74.1588 44.2376 75.0742 43.4608 76.238 43.4608C77.319 43.4608 78.0809 44.167 78.0809 45.4843V49.8776H78.7735V45.4843C78.7735 43.7514 77.721 42.7953 76.2516 42.7953ZM86.8268 42.9474V44.5133C86.2292 43.4323 85.083 42.7695 83.8472 42.7926C81.8712 42.7872 80.2633 44.3842 80.2579 46.3602C80.2579 46.3765 80.2579 46.3928 80.2579 46.4091C80.2361 48.3851 81.821 50.0052 83.7983 50.0256C83.8146 50.0256 83.8309 50.0256 83.8472 50.0256C85.083 50.0487 86.2292 49.3873 86.8268 48.3049V49.8749H87.533V42.9474H86.8268ZM83.9015 49.3642C82.2909 49.3765 80.9763 48.0795 80.964 46.4689C80.964 46.4499 80.964 46.4308 80.964 46.4118C80.945 44.8012 82.2338 43.4798 83.8445 43.4608C83.8635 43.4608 83.8825 43.4608 83.9015 43.4608C85.5054 43.4499 86.8146 44.7414 86.8254 46.3453C86.8254 46.367 86.8254 46.3901 86.8254 46.4118C86.8512 48.0157 85.5719 49.3371 83.9681 49.3629C83.9463 49.3642 83.9233 49.3642 83.9015 49.3642ZM94.9751 49.8762L91.1087 46.2733L94.8366 42.9488H93.8669L90.3604 46.0954V40.1784H89.6678V49.8749H90.3604V46.4661L94.0326 49.8749H94.9751V49.8762ZM98.0932 42.7953C96.1634 42.7424 94.5568 44.2634 94.5039 46.1932C94.5025 46.2665 94.5025 46.3398 94.5052 46.4132C94.4387 48.3457 95.9529 49.9659 97.8854 50.031C97.9737 50.0338 98.062 50.0338 98.1502 50.0297C99.3643 50.0826 100.515 49.4865 101.172 48.4638L100.562 48.104C100.057 48.9337 99.1348 49.4186 98.1638 49.3656C96.6469 49.4335 95.3486 48.2873 95.2263 46.7744H101.505C101.505 46.6631 101.518 46.5531 101.518 46.4417C101.515 44.5418 100.2 42.7953 98.0932 42.7953ZM98.0932 43.4608C99.4512 43.4608 100.644 44.4033 100.796 46.094H95.225C95.3105 44.5839 96.5817 43.4173 98.0932 43.4608ZM103.054 44.7604C103.054 43.9293 103.816 43.4594 104.718 43.4594C105.472 43.4064 106.178 43.8261 106.491 44.5133L107.074 44.1805C106.644 43.2829 105.712 42.7356 104.718 42.7953C103.304 42.7953 102.362 43.6686 102.362 44.7631C102.362 47.2579 106.561 46.1769 106.561 48.0619C106.561 48.9351 105.743 49.3629 104.773 49.3629C103.735 49.3629 102.986 48.8916 102.736 48.1433L102.14 48.4897C102.473 49.3765 103.387 50.0283 104.773 50.0283C106.256 50.0283 107.253 49.1972 107.253 48.0605C107.253 45.525 103.054 46.6196 103.054 44.7631V44.7604ZM117.702 42.9501L115.29 49.1157L112.491 42.9474H111.743L114.932 50.0012L114.78 50.376C114.35 51.3877 113.643 52.0803 112.714 51.9975V52.6494C113.906 52.7458 114.932 51.8454 115.459 50.5145L118.45 42.9501H117.702ZM122.318 50.031C124.3 50.0555 125.925 48.4679 125.95 46.4865C125.95 46.4621 125.95 46.4376 125.95 46.4132C125.966 44.4318 124.373 42.8116 122.392 42.7953C122.367 42.7953 122.343 42.7953 122.318 42.7953C120.335 42.7654 118.703 44.3489 118.673 46.3317C118.673 46.3589 118.673 46.386 118.673 46.4132C118.66 48.3959 120.255 50.0147 122.239 50.0297C122.265 50.0297 122.291 50.0297 122.318 50.0297V50.031ZM122.318 49.3656C120.708 49.3778 119.393 48.0809 119.381 46.4702C119.381 46.4512 119.381 46.4322 119.381 46.4132C119.362 44.8025 120.65 43.4811 122.261 43.4621C122.28 43.4621 122.299 43.4621 122.318 43.4621C123.922 43.4513 125.231 44.7428 125.242 46.3466C125.242 46.3684 125.242 46.3915 125.242 46.4132C125.267 48.017 123.987 49.3371 122.382 49.3629C122.36 49.3629 122.339 49.3629 122.315 49.3629L122.318 49.3656ZM132.6 42.9501V46.6087C132.6 48.4801 131.533 49.3669 130.175 49.3669C128.874 49.3669 128.137 48.5358 128.137 47.2606V42.9501H127.431V47.2579C127.431 48.9365 128.47 50.027 130.12 50.027C131.167 50.0799 132.144 49.5014 132.6 48.5589V49.8776H133.293V42.9501H132.6ZM136.119 44.3068V42.9488H135.426V49.8762H136.119V46.0248C136.119 44.2512 137.242 43.5165 138.433 43.5165V42.851C137.428 42.7858 136.496 43.3725 136.12 44.3068H136.119ZM148.62 42.9501L146.001 49.1565L143.395 42.9461H142.647L145.584 49.8749H146.43L149.354 42.9501H148.62ZM150.962 41.2716C151.268 41.2702 151.516 41.0231 151.516 40.7175C151.51 40.416 151.264 40.1756 150.962 40.177C150.661 40.1756 150.415 40.416 150.408 40.7175C150.408 41.0231 150.657 41.2702 150.962 41.2716ZM150.615 49.8776H151.307V42.9501H150.615V49.8776ZM153.913 44.7631C153.913 43.932 154.675 43.4621 155.577 43.4621C156.331 43.4092 157.037 43.8288 157.351 44.516L157.933 44.1833C157.503 43.2856 156.571 42.7383 155.577 42.798C154.163 42.798 153.221 43.6713 153.221 44.7659C153.221 47.2606 157.42 46.1796 157.42 48.0646C157.42 48.9378 156.602 49.3656 155.633 49.3656C154.594 49.3656 153.845 48.8943 153.596 48.1461L152.999 48.4924C153.332 49.3792 154.246 50.031 155.633 50.031C157.116 50.031 158.112 49.1999 158.112 48.0632C158.114 45.525 153.915 46.6196 153.913 44.7631ZM160.068 41.2716C160.374 41.2702 160.621 41.0231 160.622 40.7175C160.615 40.416 160.37 40.1756 160.068 40.177C159.767 40.1756 159.521 40.416 159.514 40.7175C159.514 41.0231 159.761 41.2702 160.068 41.2716ZM159.72 49.8776H160.413V42.9501H159.72V49.8776ZM165.722 50.0297C167.703 50.0541 169.329 48.4666 169.353 46.4852C169.353 46.4607 169.353 46.4363 169.353 46.4118C169.369 44.4304 167.776 42.8103 165.795 42.794C165.77 42.794 165.746 42.794 165.722 42.794C163.739 42.7641 162.106 44.3476 162.077 46.3303C162.077 46.3575 162.077 46.3847 162.077 46.4118C162.062 48.3946 163.657 50.0147 165.64 50.0297C165.667 50.0297 165.694 50.0297 165.722 50.0297ZM165.722 49.3642C164.111 49.3765 162.796 48.0795 162.784 46.4689C162.784 46.4499 162.784 46.4308 162.784 46.4118C162.765 44.8012 164.054 43.4798 165.665 43.4608C165.684 43.4608 165.703 43.4608 165.722 43.4608C167.325 43.4499 168.635 44.7414 168.646 46.3453C168.646 46.367 168.646 46.3901 168.646 46.4118C168.671 48.0157 167.392 49.3371 165.788 49.3629C165.766 49.3642 165.745 49.3642 165.722 49.3642ZM174.189 42.7953C173.142 42.7424 172.166 43.3209 171.709 44.2634V42.9488H171.017V49.8762H171.709V46.2176C171.709 44.3462 172.777 43.4594 174.135 43.4594C175.436 43.4594 176.172 44.2905 176.172 45.5658V49.8749H176.878V45.5644C176.878 43.8899 175.839 42.7953 174.189 42.7953ZM188.629 42.9474V44.5133C188.032 43.4323 186.886 42.7695 185.65 42.7926C183.674 42.7872 182.066 44.3842 182.06 46.3602C182.06 46.3765 182.06 46.3928 182.06 46.4091C182.039 48.3851 183.623 50.0052 185.601 50.0256C185.617 50.0256 185.633 50.0256 185.65 50.0256C186.886 50.0487 188.032 49.3873 188.629 48.3049V49.8749H189.335V42.9474H188.629ZM185.705 49.3642C184.095 49.3765 182.78 48.0795 182.768 46.4689C182.768 46.4499 182.768 46.4308 182.768 46.4118C182.749 44.8012 184.038 43.4798 185.648 43.4608C185.667 43.4608 185.686 43.4608 185.705 43.4608C187.309 43.4499 188.618 44.7414 188.629 46.3453C188.629 46.367 188.629 46.3901 188.629 46.4118C188.655 48.0157 187.376 49.3371 185.772 49.3629C185.75 49.3642 185.728 49.3642 185.705 49.3642ZM195.864 44.3055V42.9488H195.171V49.8762H195.864V46.0248C195.864 44.2512 196.987 43.5165 198.178 43.5165V42.851C197.174 42.7845 196.241 43.3725 195.864 44.3055ZM201.865 42.7953C199.935 42.7424 198.329 44.2634 198.276 46.1932C198.274 46.2665 198.274 46.3398 198.277 46.4132C198.21 48.3457 199.725 49.9659 201.657 50.031C201.745 50.0338 201.834 50.0338 201.922 50.0297C203.136 50.0826 204.286 49.4865 204.944 48.4638L204.334 48.104C203.829 48.9337 202.907 49.4186 201.936 49.3656C200.419 49.4335 199.12 48.2873 198.998 46.7744H205.276C205.276 46.6631 205.29 46.5531 205.29 46.4417C205.289 44.5418 203.97 42.7953 201.865 42.7953ZM201.865 43.4608C203.223 43.4608 204.415 44.4033 204.567 46.094H198.997C199.082 44.5839 200.353 43.4173 201.865 43.4608ZM213.008 42.9501V44.516C212.41 43.435 211.264 42.7722 210.028 42.7953C208.052 42.7899 206.444 44.387 206.439 46.3629C206.439 46.3792 206.439 46.3955 206.439 46.4118C206.417 48.3878 208.002 50.0079 209.979 50.0283C209.996 50.0283 210.012 50.0283 210.028 50.0283C211.264 50.0514 212.41 49.39 213.008 48.3077V49.8749H213.714V42.9474H213.008V42.9501ZM210.082 49.3642C208.472 49.3765 207.157 48.0795 207.145 46.4689C207.145 46.4499 207.145 46.4308 207.145 46.4118C207.126 44.8012 208.415 43.4798 210.025 43.4608C210.044 43.4608 210.063 43.4608 210.082 43.4608C211.686 43.4499 212.995 44.7414 213.006 46.3453C213.006 46.367 213.006 46.3901 213.006 46.4118C213.032 48.0157 211.753 49.3371 210.149 49.3629C210.127 49.3642 210.106 49.3642 210.082 49.3642ZM215.847 49.8762H216.54V39.7601H215.847V49.8762ZM219.021 41.2716C219.327 41.2702 219.575 41.0231 219.575 40.7175C219.568 40.416 219.323 40.1756 219.021 40.177C218.72 40.1756 218.474 40.416 218.467 40.7175C218.468 41.0217 218.716 41.2702 219.021 41.2716ZM218.675 49.8776H219.367V42.9501H218.675V49.8776ZM225.05 43.6278V42.9501H222.984V41.0108L222.278 41.22V42.9501H220.755V43.6292H222.281V48.1311C222.281 49.7105 223.237 50.1546 225.05 49.8776V49.2542C223.636 49.3805 222.984 49.3507 222.984 48.1311V43.6278H225.05ZM232.063 42.9501L229.652 49.1157L226.853 42.9474H226.105L229.294 50.0012L229.141 50.376C228.712 51.3877 228.005 52.0803 227.076 51.9975V52.6494C228.268 52.7458 229.294 51.8454 229.82 50.5145L232.811 42.9501H232.063Z" fill="#424242"></path><defs><linearGradient id="paint0_linear_1_224" x1="0.432412" y1="26.186" x2="48.0534" y2="26.186" gradientUnits="userSpaceOnUse"><stop stop-color="#FD5DC8"></stop><stop offset="0.06" stop-color="#F95EC8"></stop><stop offset="0.12" stop-color="#EC60C8"></stop><stop offset="0.18" stop-color="#D664C8"></stop><stop offset="0.25" stop-color="#B869C9"></stop><stop offset="0.31" stop-color="#9170C9"></stop><stop offset="0.38" stop-color="#6179CA"></stop><stop offset="0.45" stop-color="#2A83CB"></stop><stop offset="0.49" stop-color="#018ACB"></stop><stop offset="1" stop-color="#53C0B0"></stop></linearGradient><linearGradient id="paint1_linear_1_224" x1="28.6151" y1="27.3124" x2="55.2896" y2="27.3124" gradientUnits="userSpaceOnUse"><stop stop-color="#FD5DC8"></stop><stop offset="0.7" stop-color="#018ACB"></stop><stop offset="1" stop-color="#53C0B0"></stop></linearGradient><linearGradient id="paint2_linear_1_224" x1="7.71201" y1="45.9556" x2="61.6815" y2="45.9556" gradientUnits="userSpaceOnUse"><stop stop-color="#FD5DC8"></stop><stop offset="0.61" stop-color="#018ACB"></stop><stop offset="1" stop-color="#53C0B0"></stop></linearGradient></defs></svg> 